<?xml version="1.0" encoding="utf-8"?>
<svg viewBox="0 0 500 500" xmlns="http://www.w3.org/2000/svg">
  <path d="M 70.441 345.059 L 0.168 138.673 L 43.217 138.673 L 92.971 291.421 L 141.117 138.673 L 183.227 138.673 L 112.82 345.059 L 70.441 345.059 Z M 203.737 345.059 L 203.737 138.673 L 338.516 138.673 L 338.516 173.587 L 243.434 173.587 L 243.434 222.438 L 325.507 222.438 L 325.507 257.353 L 243.434 257.353 L 243.434 345.059 L 203.737 345.059 Z M 414.153 315.354 L 414.153 261.717 L 362.655 261.717 L 362.655 224.69 L 414.153 224.69 L 414.153 171.052 L 448.484 171.052 L 448.484 224.69 L 500.115 224.69 L 500.115 261.717 L 448.484 261.717 L 448.484 315.354 L 414.153 315.354 Z" style="fill: rgb(227, 227, 227); white-space: pre;"/>
  <ellipse style="fill: rgb(216, 216, 216); stroke: rgba(0, 0, 0, 0);" cx="253.427" cy="77.508" rx="7.073" ry="7.073"/>
  <ellipse style="fill: rgb(216, 216, 216); stroke: rgba(0, 0, 0, 0);" cx="343.553" cy="377.093" rx="6.845" ry="6.845"/>
  <ellipse style="fill: rgb(216, 216, 216); stroke: rgba(0, 0, 0, 0);" cx="134.779" cy="459.005" rx="15.744" ry="15.744"/>
  <ellipse style="fill: rgb(216, 216, 216); stroke: rgba(0, 0, 0, 0);" cx="391.697" cy="56.973" rx="19.394" ry="19.394"/>
  <ellipse style="fill: rgb(216, 216, 216); stroke: rgba(0, 0, 0, 0);" cx="372.074" cy="78.877" rx="4.335" ry="4.335"/>
  <ellipse style="fill: rgb(216, 216, 216); stroke: rgba(0, 0, 0, 0);" cx="180.413" cy="440.752" rx="2.053" ry="2.053"/>
  <ellipse style="fill: rgb(216, 216, 216); stroke: rgba(0, 0, 0, 0);" cx="131.813" cy="117.894" rx="4.563" ry="4.563"/>
  <ellipse style="fill: rgb(216, 216, 216); stroke: rgba(0, 0, 0, 0);" cx="51.498" cy="37.021" rx="9.127" ry="9.127"/>
  <ellipse style="fill: rgb(216, 216, 216); stroke: rgba(0, 0, 0, 0);" cx="425.694" cy="434.033" rx="7.758" ry="7.758"/>
</svg>